<?xml version="1.0" encoding="utf-8"?>
<!-- Generator: Adobe Illustrator 19.2.1, SVG Export Plug-In . SVG Version: 6.00 Build 0)  -->
<svg version="1.1" id="Capa_1" xmlns="http://www.w3.org/2000/svg" xmlns:xlink="http://www.w3.org/1999/xlink" x="0px" y="0px"
	 viewBox="0 0 14.4 16" style="enable-background:new 0 0 14.4 16;" xml:space="preserve">
<style type="text/css">
	.st0{fill:#455A64;}
</style>
<path class="st0" d="M4,15.6V1.4l2.5,2.5C6.6,4,6.7,4,6.8,4C6.9,4,7,4,7.1,3.9c0.2-0.2,0.2-0.4,0-0.6L3.9,0.1C3.8,0,3.5,0,3.3,0.1
	L0.1,3.3C0,3.5,0,3.7,0.1,3.9s0.4,0.2,0.6,0l2.5-2.5v14.2c0,0.2,0.2,0.4,0.4,0.4C3.8,16,4,15.8,4,15.6z"/>
<path class="st0" d="M10.5,15.9c0.1,0.1,0.2,0.1,0.3,0.1s0.2,0,0.3-0.1l3.2-3.2c0.2-0.2,0.2-0.4,0-0.6c-0.2-0.2-0.4-0.2-0.6,0
	l-2.5,2.5V0.4c0-0.2-0.2-0.4-0.4-0.4s-0.4,0.2-0.4,0.4v14.2l-2.5-2.5c-0.2-0.2-0.4-0.2-0.6,0c-0.2,0.2-0.2,0.4,0,0.6L10.5,15.9z"/>
</svg>
