<?xml version="1.0" encoding="utf-8"?>
<!-- Generator: Adobe Illustrator 19.2.1, SVG Export Plug-In . SVG Version: 6.00 Build 0)  -->
<svg version="1.1" id="Capa_1" xmlns="http://www.w3.org/2000/svg" xmlns:xlink="http://www.w3.org/1999/xlink" x="0px" y="0px"
	 viewBox="0 0 17 17" style="enable-background:new 0 0 17 17;" xml:space="preserve">
<style type="text/css">
	.st0{fill:#455A64;}
</style>
<g>
	<g>
		<path class="st0" d="M10,8.5l6.7-6.7c0.4-0.4,0.4-1.1,0-1.5c-0.4-0.4-1.1-0.4-1.5,0L8.5,7L1.8,0.3c-0.4-0.4-1.1-0.4-1.5,0
			c-0.4,0.4-0.4,1.1,0,1.5L7,8.5l-6.7,6.7c-0.4,0.4-0.4,1.1,0,1.5C0.5,16.9,0.8,17,1.1,17s0.5-0.1,0.8-0.3L8.5,10l6.7,6.7
			c0.2,0.2,0.5,0.3,0.8,0.3s0.5-0.1,0.8-0.3c0.4-0.4,0.4-1.1,0-1.5L10,8.5z"/>
	</g>
</g>
</svg>
