<svg id="Capa_1" data-name="Capa 1" xmlns="http://www.w3.org/2000/svg" viewBox="0 0 473.9 792"><title>facebook-logo-outline</title><path d="M161.6,792h0Z"/><path d="M429.9,290.5h-125a18.42,18.42,0,0,1-18.4-18.4V208.6c0-49.2,33.8-98.9,109.4-98.9h41.3V36.8H333.9c-1.5-.1-3-0.1-5.6-0.1-28,0-121.4,8.3-148.5,114.7-0.6,1.8-12,36.9-10.4,120.4a18.27,18.27,0,0,1-18.3,18.7H36.7V359H161.6A18.42,18.42,0,0,1,180,377.4V755.3H286.3V377.8a18.42,18.42,0,0,1,18.4-18.4H430V290.5h-0.1Z"/><path d="M323,773.6V396.1H448.3a18.42,18.42,0,0,0,18.4-18.4V272.1a18.42,18.42,0,0,0-18.4-18.4h-125V208.5c0-30.1,19.1-62.2,72.7-62.2h59.6a18.33,18.33,0,0,0,18.3-18.4V18.5A18.39,18.39,0,0,0,455.6.1l-120.5.1S332.7,0,328.3,0C303.6,0,178.7,6.9,144.7,140.8c-0.5,1.5-12,35-12.1,113H18.4A18.33,18.33,0,0,0,0,272.1V377.3a18.42,18.42,0,0,0,18.4,18.4H143.3V773.6A18.46,18.46,0,0,0,161.6,792H304.7A18.33,18.33,0,0,0,323,773.6ZM286.3,377.8V755.3H180V377.4A18.42,18.42,0,0,0,161.6,359H36.7V290.5H151a18.27,18.27,0,0,0,18.3-18.7c-1.6-83.5,9.8-118.6,10.4-120.4C206.9,45,300.3,36.7,328.3,36.7c2.6,0,4.1.1,5.6,0.1H437.2v72.9H395.9c-75.6,0-109.4,49.7-109.4,98.9v63.5a18.42,18.42,0,0,0,18.4,18.4h125v68.9H304.6A18.33,18.33,0,0,0,286.3,377.8Z"/></svg>