<?xml version="1.0" encoding="utf-8"?>
<!-- Generator: Adobe Illustrator 19.2.1, SVG Export Plug-In . SVG Version: 6.00 Build 0)  -->
<svg version="1.1" id="Layer_1" xmlns="http://www.w3.org/2000/svg" xmlns:xlink="http://www.w3.org/1999/xlink" x="0px" y="0px"
	 viewBox="0 0 24 16.4" style="enable-background:new 0 0 24 16.4;" xml:space="preserve">
<style type="text/css">
	.st0{fill:#FFFFFF;}
	.st1{fill:#EB0411;}
</style>
<g>
	<path class="st0" d="M23.6,16.4H0.4c-0.2,0-0.4-0.2-0.4-0.4V0.4C0,0.2,0.2,0,0.4,0h23.2C23.8,0,24,0.2,24,0.4v15.5
		C24,16.2,23.8,16.4,23.6,16.4z"/>
	<g>
		<polygon class="st1" points="24,6.9 13.2,6.9 13.2,0 10.8,0 10.8,6.9 0,6.9 0,9.5 10.8,9.5 10.8,16.4 13.2,16.4 13.2,9.5 24,9.5 
					"/>
		<path class="st1" d="M7,2.9C6.6,2.9,6.2,2.9,5.8,3c0-0.4,0.1-0.8,0.1-1.3c-0.4,0.1-0.8,0.1-1.1,0c0,0.4,0.1,0.8,0.1,1.3
			c-0.4,0-0.8-0.1-1.2-0.1c0,0.4,0,0.8,0,1.2C4.1,4,4.5,4,4.9,3.9c0,0.4-0.1,0.8-0.1,1.3c0.4-0.1,0.8-0.1,1.1,0
			c0-0.4-0.1-0.8-0.1-1.3C6.2,4,6.6,4,7,4C7,3.6,7,3.3,7,2.9z"/>
		<path class="st1" d="M20.3,2.9c-0.4,0-0.8,0.1-1.2,0.1c0-0.4,0.1-0.8,0.1-1.3c-0.4,0.1-0.8,0.1-1.1,0c0,0.4,0.1,0.8,0.1,1.3
			c-0.4,0-0.8-0.1-1.2-0.1c0,0.4,0,0.8,0,1.2c0.4,0,0.8-0.1,1.2-0.1c0,0.4-0.1,0.8-0.1,1.3c0.4-0.1,0.8-0.1,1.1,0
			c0-0.4-0.1-0.8-0.1-1.3C19.5,4,19.9,4,20.3,4C20.2,3.6,20.2,3.3,20.3,2.9z"/>
		<path class="st1" d="M7,12.3c-0.4,0-0.8,0.1-1.2,0.1c0-0.4,0.1-0.8,0.1-1.3c-0.4,0.1-0.8,0.1-1.1,0c0,0.4,0.1,0.8,0.1,1.3
			c-0.4,0-0.8-0.1-1.2-0.1c0,0.4,0,0.8,0,1.2c0.4,0,0.8-0.1,1.2-0.1c0,0.4-0.1,0.8-0.1,1.3c0.4-0.1,0.8-0.1,1.1,0
			c0-0.4-0.1-0.8-0.1-1.3c0.4,0,0.8,0.1,1.2,0.1C7,13.1,7,12.7,7,12.3z"/>
		<path class="st1" d="M20.3,12.3c-0.4,0-0.8,0.1-1.2,0.1c0-0.4,0.1-0.8,0.1-1.3c-0.4,0.1-0.8,0.1-1.1,0c0,0.4,0.1,0.8,0.1,1.3
			c-0.4,0-0.8-0.1-1.2-0.1c0,0.4,0,0.8,0,1.2c0.4,0,0.8-0.1,1.2-0.1c0,0.4-0.1,0.8-0.1,1.3c0.4-0.1,0.8-0.1,1.1,0
			c0-0.4-0.1-0.8-0.1-1.3c0.4,0,0.8,0.1,1.2,0.1C20.2,13.1,20.2,12.7,20.3,12.3z"/>
	</g>
</g>
</svg>
