<svg id="Capa_1" data-name="Capa 1" xmlns="http://www.w3.org/2000/svg" viewBox="0 0 612.07 500.4"><title>twitter-social-outlined-logo</title><path d="M519.5,148.3a13.91,13.91,0,0,1,4.5-16,201.32,201.32,0,0,0,23.4-20.8,146.37,146.37,0,0,1-44.5,7.1h-2.1a14.71,14.71,0,0,1-9.7-4.1,103.74,103.74,0,0,0-177.7,72.7,106.62,106.62,0,0,0,3.2,25.8,14,14,0,0,1-2.2,11.6,14.24,14.24,0,0,1-10.4,5.7c-114.5,6.4-209.5-77-244.4-112.4-26,68.2,33.9,120.2,36.7,122.6a13.91,13.91,0,0,1-7,24.3c-11.6,1.7-23.6-.9-33.4-4.7,11.3,66.3,74.2,80.6,77.1,81.2a13.89,13.89,0,0,1,2.9,26.2c-8.5,3.9-20,5.7-32.6,5.3,27.3,50.7,81.9,51.4,84.5,51.4a13.87,13.87,0,0,1,10.4,23.1c-36.7,40.6-87.8,53.4-129.4,56.1,45.5,20,93.1,24.9,129.1,24.9,38.6,0,66-5.7,66.2-5.8,274.4-64.1,259.5-326.2,259.4-328.9a13.9,13.9,0,0,1,4.5-11.2c12.5-11.3,22.3-20.8,30-28.7a233,233,0,0,1-24.3,3.2A13.47,13.47,0,0,1,519.5,148.3Z" transform="translate(0.06 -55.8)"/><path d="M606,114.2a13.82,13.82,0,0,0-16.1.3c-3.3,2.5-8.2,4.6-13.9,6.5,18.8-23.3,19.1-38.9,18.8-42.8A13.84,13.84,0,0,0,572.9,68a121.26,121.26,0,0,1-66.3,22.9,130.78,130.78,0,0,0-89.4-35.1c-72.5,0-131.5,59-131.5,131.5a137.72,137.72,0,0,0,.9,15.7C165.6,200,67.5,86,66.5,84.8a13.89,13.89,0,0,0-22.6,1.9c-30.8,52.6-18.2,102.5,2.9,137.4a13.86,13.86,0,0,0-20.4,12c-0.9,55.3,24.4,88.4,49.8,107.7a13.36,13.36,0,0,0-5,3.5,13.87,13.87,0,0,0-3,13.5c17.7,57.1,59.3,78.5,88.5,86.6C123.2,471,81.8,476.5,50.3,476.5a226.3,226.3,0,0,1-34.1-2.4A13.83,13.83,0,0,0,5.5,498.8c63.1,47.5,139.4,57.4,192.3,57.4,41.8,0,70.8-6.1,72.3-6.4,271.3-63.4,281.6-306.6,281.2-350.9,50.9-46.7,59-65,60.2-69.5A14,14,0,0,0,606,114.2Zm-78.1,68.4a14,14,0,0,0-4.5,11.2c0.2,2.6,15,264.8-259.4,328.9-0.3.1-27.6,5.8-66.2,5.8-36,0-83.7-4.9-129.1-24.9,41.6-2.7,92.7-15.4,129.4-56.1a13.63,13.63,0,0,0,2.3-14.9,13.84,13.84,0,0,0-12.7-8.2c-2.6,0-57.2-.7-84.5-51.4,12.6,0.4,24.1-1.5,32.6-5.3a13.72,13.72,0,0,0,8-14.1,14,14,0,0,0-10.9-12.1c-3-.6-65.8-15-77.1-81.2,9.8,3.8,21.8,6.4,33.4,4.7a13.91,13.91,0,0,0,7-24.3c-2.8-2.4-62.7-54.4-36.7-122.6C94.4,153.4,189.4,236.8,304,230.4a13.86,13.86,0,0,0,12.6-17.3,101.89,101.89,0,0,1-3.2-25.8,103.74,103.74,0,0,1,177.7-72.7,13.62,13.62,0,0,0,9.7,4.1h2.1a146.37,146.37,0,0,0,44.5-7.1A201.32,201.32,0,0,1,524,132.4a13.84,13.84,0,0,0,9.5,24.8c2.2-.2,12.1-1,24.3-3.2C550.2,161.8,540.4,171.3,527.9,182.6Z" transform="translate(0.06 -55.8)"/></svg>