<?xml version="1.0" encoding="utf-8"?>
<!-- Generator: Adobe Illustrator 19.2.1, SVG Export Plug-In . SVG Version: 6.00 Build 0)  -->
<svg version="1.1" id="Layer_1" xmlns="http://www.w3.org/2000/svg" xmlns:xlink="http://www.w3.org/1999/xlink" x="0px" y="0px"
	 viewBox="0 0 24.5 16.5" style="enable-background:new 0 0 24.5 16.5;" xml:space="preserve">
<style type="text/css">
	.st0{fill:#F5F5F5;}
	.st1{fill:#FF4B55;}
	.st2{fill:#41479B;}
</style>
<path class="st0" d="M24.1,16.5H0.4c-0.2,0-0.4-0.2-0.4-0.4V0.4C0,0.2,0.2,0,0.4,0h23.7c0.2,0,0.4,0.2,0.4,0.4v15.7
	C24.5,16.3,24.3,16.5,24.1,16.5z"/>
<g>
	<path class="st1" d="M24.5,1.3H0V0.4C0,0.2,0.2,0,0.4,0h23.7c0.2,0,0.4,0.2,0.4,0.4L24.5,1.3L24.5,1.3z"/>
	<rect y="5.1" class="st1" width="24.5" height="1.3"/>
	<rect y="2.5" class="st1" width="24.5" height="1.3"/>
	<path class="st1" d="M24.5,8.9H0.4C0.2,8.9,0,8.7,0,8.5V7.6h24.5V8.9z"/>
	<rect y="12.7" class="st1" width="24.5" height="1.3"/>
	<path class="st1" d="M24.1,16.5H0.4c-0.2,0-0.4-0.2-0.4-0.4v-0.8h24.5v0.8C24.5,16.3,24.3,16.5,24.1,16.5z"/>
	<rect y="10.2" class="st1" width="24.5" height="1.3"/>
</g>
<path class="st2" d="M11,0H0.4C0.2,0,0,0.2,0,0.4v8c0,0.2,0.2,0.4,0.4,0.4H11c0.2,0,0.4-0.2,0.4-0.4v-8C11.4,0.2,11.2,0,11,0z"/>
<g>
	<path class="st0" d="M1.2,1l0.1,0.3l0.3,0c0,0,0.1,0.1,0,0.1L1.4,1.5l0.1,0.3c0,0,0,0.1-0.1,0L1.1,1.7L0.9,1.9c0,0-0.1,0-0.1,0
		l0.1-0.3L0.7,1.4c0,0,0-0.1,0-0.1l0.3,0L1.2,1C1.1,1,1.2,1,1.2,1z"/>
	<path class="st0" d="M1.2,2.5l0.1,0.3l0.3,0c0,0,0.1,0.1,0,0.1L1.4,3.1l0.1,0.3c0,0,0,0.1-0.1,0L1.1,3.2L0.9,3.4c0,0-0.1,0-0.1,0
		l0.1-0.3L0.7,2.9c0,0,0-0.1,0-0.1l0.3,0L1.2,2.5C1.1,2.5,1.2,2.5,1.2,2.5z"/>
	<path class="st0" d="M1.2,4l0.1,0.3l0.3,0c0,0,0.1,0.1,0,0.1L1.4,4.6l0.1,0.3c0,0,0,0.1-0.1,0L1.1,4.7L0.9,4.9c0,0-0.1,0-0.1,0
		l0.1-0.3L0.7,4.4c0,0,0-0.1,0-0.1l0.3,0L1.2,4C1.1,4,1.2,4,1.2,4z"/>
	<path class="st0" d="M1.2,5.5l0.1,0.3l0.3,0c0,0,0.1,0.1,0,0.1L1.4,6.1l0.1,0.3c0,0,0,0.1-0.1,0L1.1,6.2L0.9,6.4c0,0-0.1,0-0.1,0
		l0.1-0.3L0.7,5.9c0,0,0-0.1,0-0.1l0.3,0L1.2,5.5C1.1,5.5,1.2,5.5,1.2,5.5z"/>
	<path class="st0" d="M1.2,7l0.1,0.3l0.3,0c0,0,0.1,0.1,0,0.1L1.4,7.6l0.1,0.3c0,0,0,0.1-0.1,0L1.1,7.7L0.9,7.9c0,0-0.1,0-0.1,0
		l0.1-0.3L0.7,7.4c0,0,0-0.1,0-0.1l0.3,0L1.2,7C1.1,7,1.2,7,1.2,7z"/>
	<path class="st0" d="M2.3,1.7L2.4,2l0.3,0c0,0,0.1,0.1,0,0.1L2.5,2.3l0.1,0.3c0,0,0,0.1-0.1,0L2.3,2.4L2,2.6c0,0-0.1,0-0.1,0
		l0.1-0.3L1.8,2.1c0,0,0-0.1,0-0.1l0.3,0L2.3,1.7C2.3,1.7,2.3,1.7,2.3,1.7z"/>
	<path class="st0" d="M2.3,3.2l0.1,0.3l0.3,0c0,0,0.1,0.1,0,0.1L2.5,3.8l0.1,0.3c0,0,0,0.1-0.1,0L2.3,4L2,4.1c0,0-0.1,0-0.1,0
		l0.1-0.3L1.8,3.6c0,0,0-0.1,0-0.1l0.3,0L2.3,3.2C2.3,3.2,2.3,3.2,2.3,3.2z"/>
	<path class="st0" d="M2.3,4.8L2.4,5l0.3,0c0,0,0.1,0.1,0,0.1L2.5,5.3l0.1,0.3c0,0,0,0.1-0.1,0L2.3,5.5L2,5.6c0,0-0.1,0-0.1,0
		l0.1-0.3L1.8,5.1c0,0,0-0.1,0-0.1l0.3,0L2.3,4.8C2.3,4.7,2.3,4.7,2.3,4.8z"/>
	<path class="st0" d="M2.3,6.3l0.1,0.3l0.3,0c0,0,0.1,0.1,0,0.1L2.5,6.8l0.1,0.3c0,0,0,0.1-0.1,0L2.3,7L2,7.1c0,0-0.1,0-0.1,0
		l0.1-0.3L1.8,6.6c0,0,0-0.1,0-0.1l0.3,0L2.3,6.3C2.3,6.2,2.3,6.2,2.3,6.3z"/>
	<path class="st0" d="M3.5,1l0.1,0.3l0.3,0c0,0,0.1,0.1,0,0.1L3.6,1.5l0.1,0.3c0,0,0,0.1-0.1,0L3.4,1.7L3.2,1.9c0,0-0.1,0-0.1,0
		l0.1-0.3L3,1.4c0,0,0-0.1,0-0.1l0.3,0L3.5,1C3.4,1,3.5,1,3.5,1z"/>
	<path class="st0" d="M3.5,2.5l0.1,0.3l0.3,0c0,0,0.1,0.1,0,0.1L3.6,3.1l0.1,0.3c0,0,0,0.1-0.1,0L3.4,3.2L3.2,3.4c0,0-0.1,0-0.1,0
		l0.1-0.3L3,2.9c0,0,0-0.1,0-0.1l0.3,0L3.5,2.5C3.4,2.5,3.5,2.5,3.5,2.5z"/>
	<path class="st0" d="M3.5,4l0.1,0.3l0.3,0c0,0,0.1,0.1,0,0.1L3.6,4.6l0.1,0.3c0,0,0,0.1-0.1,0L3.4,4.7L3.2,4.9c0,0-0.1,0-0.1,0
		l0.1-0.3L3,4.4c0,0,0-0.1,0-0.1l0.3,0L3.5,4C3.4,4,3.5,4,3.5,4z"/>
	<path class="st0" d="M3.5,5.5l0.1,0.3l0.3,0c0,0,0.1,0.1,0,0.1L3.6,6.1l0.1,0.3c0,0,0,0.1-0.1,0L3.4,6.2L3.2,6.4c0,0-0.1,0-0.1,0
		l0.1-0.3L3,5.9c0,0,0-0.1,0-0.1l0.3,0L3.5,5.5C3.4,5.5,3.5,5.5,3.5,5.5z"/>
	<path class="st0" d="M3.5,7l0.1,0.3l0.3,0c0,0,0.1,0.1,0,0.1L3.6,7.6l0.1,0.3c0,0,0,0.1-0.1,0L3.4,7.7L3.2,7.9c0,0-0.1,0-0.1,0
		l0.1-0.3L3,7.4c0,0,0-0.1,0-0.1l0.3,0L3.5,7C3.4,7,3.5,7,3.5,7z"/>
	<path class="st0" d="M4.6,1.7L4.7,2L5,2C5,2,5,2.1,5,2.1L4.8,2.3l0.1,0.3c0,0,0,0.1-0.1,0L4.6,2.4L4.3,2.6c0,0-0.1,0-0.1,0l0.1-0.3
		L4.1,2.1c0,0,0-0.1,0-0.1l0.3,0L4.6,1.7C4.5,1.7,4.6,1.7,4.6,1.7z"/>
	<path class="st0" d="M4.6,3.2l0.1,0.3l0.3,0c0,0,0.1,0.1,0,0.1L4.8,3.8l0.1,0.3c0,0,0,0.1-0.1,0L4.6,4L4.3,4.1c0,0-0.1,0-0.1,0
		l0.1-0.3L4.1,3.6c0,0,0-0.1,0-0.1l0.3,0L4.6,3.2C4.5,3.2,4.6,3.2,4.6,3.2z"/>
	<path class="st0" d="M4.6,4.8L4.7,5L5,5C5,5,5,5.1,5,5.1L4.8,5.3l0.1,0.3c0,0,0,0.1-0.1,0L4.6,5.5L4.3,5.6c0,0-0.1,0-0.1,0l0.1-0.3
		L4.1,5.1c0,0,0-0.1,0-0.1l0.3,0L4.6,4.8C4.5,4.7,4.6,4.7,4.6,4.8z"/>
	<path class="st0" d="M4.6,6.3l0.1,0.3l0.3,0c0,0,0.1,0.1,0,0.1L4.8,6.8l0.1,0.3c0,0,0,0.1-0.1,0L4.6,7L4.3,7.1c0,0-0.1,0-0.1,0
		l0.1-0.3L4.1,6.6c0,0,0-0.1,0-0.1l0.3,0L4.6,6.3C4.5,6.2,4.6,6.2,4.6,6.3z"/>
	<path class="st0" d="M5.7,1l0.1,0.3l0.3,0c0,0,0.1,0.1,0,0.1L5.9,1.5L6,1.8c0,0,0,0.1-0.1,0L5.7,1.7L5.5,1.9c0,0-0.1,0-0.1,0
		l0.1-0.3L5.3,1.4c0,0,0-0.1,0-0.1l0.3,0L5.7,1C5.7,1,5.7,1,5.7,1z"/>
	<path class="st0" d="M5.7,2.5l0.1,0.3l0.3,0c0,0,0.1,0.1,0,0.1L5.9,3.1L6,3.3c0,0,0,0.1-0.1,0L5.7,3.2L5.5,3.4c0,0-0.1,0-0.1,0
		l0.1-0.3L5.3,2.9c0,0,0-0.1,0-0.1l0.3,0L5.7,2.5C5.7,2.5,5.7,2.5,5.7,2.5z"/>
	<path class="st0" d="M5.7,4l0.1,0.3l0.3,0c0,0,0.1,0.1,0,0.1L5.9,4.6L6,4.9c0,0,0,0.1-0.1,0L5.7,4.7L5.5,4.9c0,0-0.1,0-0.1,0
		l0.1-0.3L5.3,4.4c0,0,0-0.1,0-0.1l0.3,0L5.7,4C5.7,4,5.7,4,5.7,4z"/>
	<path class="st0" d="M5.7,5.5l0.1,0.3l0.3,0c0,0,0.1,0.1,0,0.1L5.9,6.1L6,6.4c0,0,0,0.1-0.1,0L5.7,6.2L5.5,6.4c0,0-0.1,0-0.1,0
		l0.1-0.3L5.3,5.9c0,0,0-0.1,0-0.1l0.3,0L5.7,5.5C5.7,5.5,5.7,5.5,5.7,5.5z"/>
	<path class="st0" d="M5.7,7l0.1,0.3l0.3,0c0,0,0.1,0.1,0,0.1L5.9,7.6L6,7.9c0,0,0,0.1-0.1,0L5.7,7.7L5.5,7.9c0,0-0.1,0-0.1,0
		l0.1-0.3L5.3,7.4c0,0,0-0.1,0-0.1l0.3,0L5.7,7C5.7,7,5.7,7,5.7,7z"/>
	<path class="st0" d="M6.9,1.7L7,2l0.3,0c0,0,0.1,0.1,0,0.1L7.1,2.3l0.1,0.3c0,0,0,0.1-0.1,0L6.8,2.4L6.6,2.6c0,0-0.1,0-0.1,0
		l0.1-0.3L6.4,2.1c0,0,0-0.1,0-0.1l0.3,0L6.9,1.7C6.8,1.7,6.9,1.7,6.9,1.7z"/>
	<path class="st0" d="M6.9,3.2L7,3.5l0.3,0c0,0,0.1,0.1,0,0.1L7.1,3.8l0.1,0.3c0,0,0,0.1-0.1,0L6.8,4L6.6,4.1c0,0-0.1,0-0.1,0
		l0.1-0.3L6.4,3.6c0,0,0-0.1,0-0.1l0.3,0L6.9,3.2C6.8,3.2,6.9,3.2,6.9,3.2z"/>
	<path class="st0" d="M6.9,4.8L7,5l0.3,0c0,0,0.1,0.1,0,0.1L7.1,5.3l0.1,0.3c0,0,0,0.1-0.1,0L6.8,5.5L6.6,5.6c0,0-0.1,0-0.1,0
		l0.1-0.3L6.4,5.1c0,0,0-0.1,0-0.1l0.3,0L6.9,4.8C6.8,4.7,6.9,4.7,6.9,4.8z"/>
	<path class="st0" d="M6.9,6.3L7,6.6l0.3,0c0,0,0.1,0.1,0,0.1L7.1,6.8l0.1,0.3c0,0,0,0.1-0.1,0L6.8,7L6.6,7.1c0,0-0.1,0-0.1,0
		l0.1-0.3L6.4,6.6c0,0,0-0.1,0-0.1l0.3,0L6.9,6.3C6.8,6.2,6.9,6.2,6.9,6.3z"/>
	<path class="st0" d="M8,1l0.1,0.3l0.3,0c0,0,0.1,0.1,0,0.1L8.2,1.5l0.1,0.3c0,0,0,0.1-0.1,0L8,1.7L7.7,1.9c0,0-0.1,0-0.1,0l0.1-0.3
		L7.5,1.4c0,0,0-0.1,0-0.1l0.3,0L8,1C8,1,8,1,8,1z"/>
	<path class="st0" d="M8,2.5l0.1,0.3l0.3,0c0,0,0.1,0.1,0,0.1L8.2,3.1l0.1,0.3c0,0,0,0.1-0.1,0L8,3.2L7.7,3.4c0,0-0.1,0-0.1,0
		l0.1-0.3L7.5,2.9c0,0,0-0.1,0-0.1l0.3,0L8,2.5C8,2.5,8,2.5,8,2.5z"/>
	<path class="st0" d="M8,4l0.1,0.3l0.3,0c0,0,0.1,0.1,0,0.1L8.2,4.6l0.1,0.3c0,0,0,0.1-0.1,0L8,4.7L7.7,4.9c0,0-0.1,0-0.1,0l0.1-0.3
		L7.5,4.4c0,0,0-0.1,0-0.1l0.3,0L8,4C8,4,8,4,8,4z"/>
	<path class="st0" d="M8,5.5l0.1,0.3l0.3,0c0,0,0.1,0.1,0,0.1L8.2,6.1l0.1,0.3c0,0,0,0.1-0.1,0L8,6.2L7.7,6.4c0,0-0.1,0-0.1,0
		l0.1-0.3L7.5,5.9c0,0,0-0.1,0-0.1l0.3,0L8,5.5C8,5.5,8,5.5,8,5.5z"/>
	<path class="st0" d="M8,7l0.1,0.3l0.3,0c0,0,0.1,0.1,0,0.1L8.2,7.6l0.1,0.3c0,0,0,0.1-0.1,0L8,7.7L7.7,7.9c0,0-0.1,0-0.1,0l0.1-0.3
		L7.5,7.4c0,0,0-0.1,0-0.1l0.3,0L8,7C8,7,8,7,8,7z"/>
	<path class="st0" d="M9.2,1.7L9.2,2l0.3,0c0,0,0.1,0.1,0,0.1L9.3,2.3l0.1,0.3c0,0,0,0.1-0.1,0L9.1,2.4L8.9,2.6c0,0-0.1,0-0.1,0
		l0.1-0.3L8.7,2.1c0,0,0-0.1,0-0.1L9,2L9.2,1.7C9.1,1.7,9.1,1.7,9.2,1.7z"/>
	<path class="st0" d="M9.2,3.2l0.1,0.3l0.3,0c0,0,0.1,0.1,0,0.1L9.3,3.8l0.1,0.3c0,0,0,0.1-0.1,0L9.1,4L8.9,4.1c0,0-0.1,0-0.1,0
		l0.1-0.3L8.7,3.6c0,0,0-0.1,0-0.1l0.3,0L9.2,3.2C9.1,3.2,9.1,3.2,9.2,3.2z"/>
	<path class="st0" d="M9.2,4.8L9.2,5l0.3,0c0,0,0.1,0.1,0,0.1L9.3,5.3l0.1,0.3c0,0,0,0.1-0.1,0L9.1,5.5L8.9,5.6c0,0-0.1,0-0.1,0
		l0.1-0.3L8.7,5.1c0,0,0-0.1,0-0.1L9,5L9.2,4.8C9.1,4.7,9.1,4.7,9.2,4.8z"/>
	<path class="st0" d="M9.2,6.3l0.1,0.3l0.3,0c0,0,0.1,0.1,0,0.1L9.3,6.8l0.1,0.3c0,0,0,0.1-0.1,0L9.1,7L8.9,7.1c0,0-0.1,0-0.1,0
		l0.1-0.3L8.7,6.6c0,0,0-0.1,0-0.1l0.3,0L9.2,6.3C9.1,6.2,9.1,6.2,9.2,6.3z"/>
	<path class="st0" d="M10.3,1l0.1,0.3l0.3,0c0,0,0.1,0.1,0,0.1l-0.2,0.2l0.1,0.3c0,0,0,0.1-0.1,0l-0.2-0.2L10,1.9c0,0-0.1,0-0.1,0
		L10,1.5L9.8,1.4c0,0,0-0.1,0-0.1l0.3,0L10.3,1C10.2,1,10.3,1,10.3,1z"/>
	<path class="st0" d="M10.3,2.5l0.1,0.3l0.3,0c0,0,0.1,0.1,0,0.1l-0.2,0.2l0.1,0.3c0,0,0,0.1-0.1,0l-0.2-0.2L10,3.4c0,0-0.1,0-0.1,0
		L10,3.1L9.8,2.9c0,0,0-0.1,0-0.1l0.3,0L10.3,2.5C10.2,2.5,10.3,2.5,10.3,2.5z"/>
	<path class="st0" d="M10.3,4l0.1,0.3l0.3,0c0,0,0.1,0.1,0,0.1l-0.2,0.2l0.1,0.3c0,0,0,0.1-0.1,0l-0.2-0.2L10,4.9c0,0-0.1,0-0.1,0
		L10,4.6L9.8,4.4c0,0,0-0.1,0-0.1l0.3,0L10.3,4C10.2,4,10.3,4,10.3,4z"/>
	<path class="st0" d="M10.3,5.5l0.1,0.3l0.3,0c0,0,0.1,0.1,0,0.1l-0.2,0.2l0.1,0.3c0,0,0,0.1-0.1,0l-0.2-0.2L10,6.4c0,0-0.1,0-0.1,0
		L10,6.1L9.8,5.9c0,0,0-0.1,0-0.1l0.3,0L10.3,5.5C10.2,5.5,10.3,5.5,10.3,5.5z"/>
	<path class="st0" d="M10.3,7l0.1,0.3l0.3,0c0,0,0.1,0.1,0,0.1l-0.2,0.2l0.1,0.3c0,0,0,0.1-0.1,0l-0.2-0.2L10,7.9c0,0-0.1,0-0.1,0
		L10,7.6L9.8,7.4c0,0,0-0.1,0-0.1l0.3,0L10.3,7C10.2,7,10.3,7,10.3,7z"/>
</g>
</svg>
